<?xml version="1.0" encoding="UTF-8"?>
<svg xmlns="http://www.w3.org/2000/svg" width="32" height="32" viewBox="0 0 32 32" shape-rendering="crispEdges">
  <!-- Placeholder sprite: Extra Life item (32x32) -->
  <rect x="0" y="0" width="32" height="32" fill="#7c2d12"/>
  <rect x="1" y="1" width="30" height="30" fill="#dc2626"/>

  <!-- subtle border -->
  <rect x="1" y="1" width="30" height="1" fill="#991b1b"/>
  <rect x="1" y="30" width="30" height="1" fill="#991b1b"/>
  <rect x="1" y="1" width="1" height="30" fill="#991b1b"/>
  <rect x="30" y="1" width="1" height="30" fill="#991b1b"/>

  <!-- white heart shape (pixelated) -->
  <!-- top bumps -->
  <rect x="8" y="9" width="6" height="3" fill="#ffffff"/>
  <rect x="18" y="9" width="6" height="3" fill="#ffffff"/>
  <!-- middle -->
  <rect x="7" y="12" width="18" height="6" fill="#ffffff"/>
  <!-- bottom triangle -->
  <rect x="9" y="18" width="14" height="2" fill="#ffffff"/>
  <rect x="11" y="20" width="10" height="2" fill="#ffffff"/>
  <rect x="13" y="22" width="6" height="2" fill="#ffffff"/>
  <rect x="15" y="24" width="2" height="2" fill="#ffffff"/>

  <!-- inner highlight -->
  <rect x="9" y="10" width="4" height="2" fill="#fecaca"/>
  <rect x="19" y="10" width="4" height="2" fill="#fecaca"/>
</svg>
